<?xml version="1.0" standalone="no"?>
<!DOCTYPE svg PUBLIC "-//W3C//DTD SVG 20010904//EN"
 "http://www.w3.org/TR/2001/REC-SVG-20010904/DTD/svg10.dtd">
<svg version="1.0" xmlns="http://www.w3.org/2000/svg"
 width="90.000000pt" height="90.000000pt" viewBox="0 0 90.000000 90.000000"
 preserveAspectRatio="xMidYMid meet">
<metadata>
Created by potrace 1.14, written by Peter Selinger 2001-2017
</metadata>
<g transform="translate(0.000000,90.000000) scale(0.100000,-0.100000)"
fill="#000000" stroke="none">
<path d="M201 819 c-18 -4 -45 -19 -60 -33 l-26 -26 0 -304 c0 -240 3 -308 14
-329 26 -49 56 -53 364 -51 155 1 285 2 290 3 4 0 7 17 7 36 l0 35 -284 0
c-156 0 -291 3 -300 6 -19 7 -21 49 -3 61 6 4 138 8 292 9 154 1 284 2 288 3
4 0 7 125 5 276 -3 269 -3 275 -25 297 -22 22 -28 22 -275 23 -139 1 -268 -2
-287 -6z m437 -181 l0 -38 -169 0 -169 0 0 33 c0 19 2 36 5 38 2 3 78 5 169 4
l165 0 -1 -37z"/>
</g>
</svg>
